<?xml version="1.0" encoding="UTF-8"?><svg id="Layer_2" xmlns="http://www.w3.org/2000/svg" viewBox="0 0 310.99 99.55"><g id="Calque_1"><path d="M166.12,10.09c-.83-.56-1.72-.58-3.05-1.44-1.32-.87-2.46-2.63-2.46-2.63-1.4.16-1.9.09-4.93-.01-6.22-.2-8.43.01-10.81-.26-2.38-.26-5.36-.46-5.36-.46,0,0-1.63,1.97-2.22,2.56-.58.59-4.25,2.41-4.76,2.9-.5.49-.8,1.32-.8,1.32l35.71-.26s-.49-1.15-1.32-1.71h0Z" style="fill:#0081ab;"/><path d="M200.13,17.67c-1.55-.18-2.38-.58-4.22-.75-2.36-.21-4.75-.06-7.1-.44-2.33-.37-4.79.03-7.08-.62l-2.15-.13c-.04-.44,0-.19-.06-.78-.02-.26.12-.96.27-1.17.43-.59.67-1.29,1.16-1.87.17-.2.36-.39.52-.59.05-.07.48-.75.47-.74.16-.27.42-.58.56-.73.2-.2.64-.71.64-.71l-.05.83s.03.46.04.51c.07.18.19.33.26.5.09.23.11.45.12.7.02.13.12,1.19.17,1.32.41,1.03,1.02,1.37,1.02,1.37,0,0,.35-.46.5-.92.03-.02.08-1.33.08-1.25,0-.93-.25-.78-.48-1.61,0-.71-.66-1.45-.81-1.97,0-.12.63,0,.93.07.58.26.86.62,1.22,1.36.37.73,1.12,1.49,1.12,1.49,0,0,.43-1.09.36-1.67-.07-.59-.11-.71-.11-.71-.08-.44-.7-.96-1.03-1.09-1.13-.49-1.59-1.21-3.17-1.09-.7-.07-1.65-.71-2.43-.68-.26.03.24-.1-.7.07-.95.16-1.98,1.53-1.98,1.53,0,0,1.03-.49,1.31-.4.28.09.25.21.67.22-.53.36-1.04.32-1.57.64-.74.62-.53,2.67-.53,2.67,0,0,.98-1.22,1.64-1.53,1.11-.5,1.29-.82,2.34-1.07.15.42-.7.66-.88.97-.08.17-.45.5-.48.71-.04.2-.67,1.07-.61,1.13l-.35.56c-.46.71-.62,1.08-1.13,1.73-.16.19-.74,1.01-.9,1.23-.16.25-.28.56-.3.85l-7.31-.43c.15-.31.2-.64.38-1.06.3-.66.62-1.32.94-1.97.73-1.44,1.51-2.87,2.13-4.37.42-.49.62-1.21.97-1.75.42-.29.7-1.07,1.24-1.41.32.55.34,1.17.34,1.78,0,.48.09,1.01-.05,1.46-.13.41-.48,1.08-.28,1.64.11.33.12,1.5.12,1.5,0,0,.97-.83,1.15-1.38.14-.42.2-.66.2-1.1s.05-.89.08-1.34c.06-.85.16-1.8-.14-2.63-.06-.25-.46-.55-.2-.78.54.25.99.74,1.49.89.73.18.58.52,1.28.7.76.03,1.55.7,1.55.7,0,0,.18-1.55-1.01-2.1-.53-.24-.86-.21-1.32-.41-.04.02-.35-.25-.37-.23-.33-.28-.77-.33-1.17-.48-.16-.06-.41-.14-.54-.28-.02-.03-.2-.37-.14-.35-.41-.19-.64-.41-.91-.73-.2-.22-.43-.69-.75-.75-.67-.13-1.49-1.09-2.39-.58-1.6.29-2.06,1.46-2.06,1.46.29.22,1.59-.68,2.93-.15.11.02.33.22.41.29-.21.34-.65.17-.97.35-.69.02-1.6.26-1.92.35-.33.08-.34.09-.76.24-.42.16-1.09.51-1.53.7-.28.12-.5.38-.72.62-.57.59-.57,1.81-.38,1.75.07-.02.6-.65.59-.65.38-.18.87-.75,1.5-1.08,1.18-.62,1.9-.74,1.9-.74,0,0-1.28.8-1.82,1.17-.53.41-.75.76-1.08,1.19-.77.59-.61.75-.73,1.39-.12.84.52,1.75.52,1.75,0,0,.21-.94.7-1.57.1-.12.44-.82.55-.94.31-.32.61-.64.91-.96.97-.6,1.8-1,2.8-1.56.33-.07.71-.05,1.04-.32.08.02.2-.04.26.06-.41.73-.88,1.6-1.44,2.26-.82,1.49-1.55,3.05-2.27,4.52-.27.46-.46,1.06-.84,1.56-.14.46-.35.89-.52,1.34-.15.35-.19.8-.37,1.12-.09.19-.25.29-.34.51-.04.08-.05.19-.07.29l-9.97-.58c-1.73-.11-3.44-.5-5.16-.52-1.64-.02-3.26.3-4.88.36-2.97.09-5.81.25-8.78.08-3.49-.22-7.01-.49-10.5,0-.42-.19-1.04.09-1.5,0-1.07.23-12.5,1.68-15.26,2.71,0,0-1.01.25-2.07.51h-.06v.56h89.3v-.56h-.02.04Z" style="fill:#0081ab;"/><path d="M135.54,99.44h-1.32l-.04-.35c.04-2.19.04-5.31,0-6.97v-.3l.35-.06.76-.04c.72-.04,1.61-.1,2.88-.1,2.16,0,5.02.26,5.02,2.5,0,1.71-1.86,2.66-5.26,2.66-.67,0-1.44-.05-2.06-.09,0,.87,0,1.71.03,2.39v.32l-.35.05h-.01ZM135.87,95.5c.48.06,1.1.1,1.9.1,3.38,0,3.66-.74,3.66-1.44,0-.87-.55-1.35-3.48-1.35-.96,0-1.47.05-2.07.14-.02.6-.02,1.54-.02,2.55h.01Z" style="fill:#0081ab;"/><path d="M153.61,99.44h-1.45l-.09-.15-1.2-2.04c-.8-.02-1.78-.02-2.77-.02-.83,0-1.67,0-2.42.02l-1.26,2.04-.09.15h-1.63l.32-.54c1.44-2.01,3.08-4.52,4.6-7.04l.09-.15h1.62l.1.16c1.45,2.48,2.78,4.59,4.49,7.04l.34.49-.63.05h-.02ZM146.41,96.07h3.74c-.57-.94-1.21-1.95-1.87-2.96-.7,1.07-1.31,2.04-1.88,2.95h.01Z" style="fill:#0081ab;"/><path d="M164.33,99.44h-1.63l-.09-.1c-.77-.81-1.81-1.81-2.92-2.77h-.56c-.67,0-1.36-.03-1.95-.07,0,.93.02,1.85.03,2.58v.32l-.37.04h-1.3l-.04-.35c.04-2.18.04-5.3,0-6.96l-.02-.29.35-.08.36-.02c.8-.06,1.77-.13,3.19-.13,2.28,0,4.9.27,4.9,2.42,0,1.13-.9,1.92-2.57,2.26.82.8,1.7,1.58,2.86,2.54l.67.56-.9.05h-.01ZM157.17,95.3c.44.04,1,.1,1.79.1,3.28,0,3.55-.69,3.55-1.35,0-.91-.5-1.24-3.35-1.24-.96,0-1.4.04-1.96.14-.02.56-.02,1.42-.02,2.36h0Z" style="fill:#0081ab;"/><path d="M167.93,99.44h-1.3l-.05-.35c.04-2.18.04-5.37,0-7v-.32l.35-.06h1.34l.03.38c-.03,2.43-.02,4.65,0,6.94v.31l-.36.1h0Z" style="fill:#0081ab;"/><path d="M174.72,99.55c-2.41,0-3.77-.62-4.12-.81l-.17-.08v-1.62c1.14.8,2.46,1.31,4.36,1.31,1.12,0,2.98-.16,2.98-1.23,0-.18,0-.65-.96-.8-.43-.07-.96-.09-1.54-.11-.87-.03-1.86-.07-2.78-.29-1.23-.29-1.85-.95-1.85-1.95,0-.71.41-2.37,4.17-2.37,1.97,0,3.12.34,3.76.62l.18.09v1.59c-.87-.61-2.27-1.09-3.99-1.09s-2.64.36-2.64.98c0,.28.08.57.88.73.6.12,1.33.14,2.11.17.68.03,1.37.05,2.01.15,1.48.21,2.23.86,2.23,1.95,0,1.33-1.21,2.76-4.6,2.76h-.03Z" style="fill:#0081ab;"/><path d="M166.1,10.09c-.84-.56-1.72-.58-3.05-1.44-1.32-.87-2.46-2.63-2.46-2.63-1.4.16-1.9.09-4.94-.01-6.22-.2-8.43.01-10.81-.26-2.38-.26-5.36-.46-5.36-.46,0,0-1.63,1.97-2.22,2.56-.58.59-4.25,2.41-4.76,2.9-.5.49-.79,1.32-.79,1.32l35.71-.26s-.49-1.15-1.32-1.71h0Z" style="fill:#0081ab;"/><path d="M200.1,17.67c-1.55-.18-2.38-.58-4.22-.75-2.36-.21-4.75-.06-7.1-.44-2.33-.37-4.79.03-7.08-.62l-2.15-.13c-.04-.44,0-.19-.05-.78-.02-.26.12-.96.27-1.17.43-.59.67-1.29,1.17-1.87.17-.2.36-.39.52-.59.05-.07.48-.75.47-.74.16-.27.42-.58.56-.73.2-.2.64-.71.64-.71l-.05.83s.03.46.04.51c.07.18.19.33.26.5.09.23.11.45.12.7.02.13.11,1.19.17,1.32.41,1.03,1.02,1.37,1.02,1.37,0,0,.35-.46.5-.92.03-.02.08-1.33.08-1.25,0-.93-.25-.78-.48-1.61,0-.71-.66-1.45-.81-1.97,0-.12.63,0,.93.07.58.26.86.62,1.22,1.36.37.73,1.12,1.49,1.12,1.49,0,0,.43-1.09.35-1.67-.07-.59-.1-.71-.1-.71-.08-.44-.7-.96-1.04-1.09-1.12-.49-1.59-1.21-3.17-1.09-.7-.07-1.64-.71-2.43-.68-.26.03.24-.1-.7.07-.94.16-1.98,1.53-1.98,1.53,0,0,1.04-.49,1.31-.4.28.09.25.21.67.22-.53.36-1.04.32-1.57.64-.74.62-.53,2.67-.53,2.67,0,0,.98-1.22,1.64-1.53,1.11-.5,1.29-.82,2.34-1.07.14.42-.7.66-.88.97-.08.17-.45.5-.48.71-.03.2-.67,1.07-.61,1.13l-.35.56c-.46.71-.62,1.08-1.13,1.73-.16.19-.74,1.01-.9,1.23-.16.25-.28.56-.3.85l-7.31-.43c.15-.31.19-.64.38-1.06.3-.66.62-1.32.94-1.97.73-1.44,1.51-2.87,2.13-4.37.42-.49.63-1.21.97-1.75.42-.29.7-1.07,1.23-1.41.32.55.35,1.17.35,1.78,0,.48.09,1.01-.05,1.46-.13.41-.48,1.08-.28,1.64.11.33.12,1.5.12,1.5,0,0,.97-.83,1.15-1.38.14-.42.2-.66.2-1.1s.05-.89.08-1.34c.06-.85.16-1.8-.14-2.63-.06-.25-.46-.55-.19-.78.53.25.98.74,1.49.89.73.18.58.52,1.28.7.76.03,1.55.7,1.55.7,0,0,.18-1.55-1.01-2.1-.53-.24-.86-.21-1.32-.41-.03.02-.35-.25-.37-.23-.33-.28-.77-.33-1.16-.48-.16-.06-.41-.14-.54-.28-.02-.03-.2-.37-.14-.35-.41-.19-.64-.41-.92-.73-.19-.22-.43-.69-.75-.75-.67-.13-1.49-1.09-2.39-.58-1.6.29-2.06,1.46-2.06,1.46.29.22,1.59-.68,2.93-.15.12.02.33.22.41.29-.21.34-.66.17-.97.35-.69.02-1.6.26-1.92.35-.33.08-.34.09-.77.24-.42.16-1.09.51-1.53.7-.28.12-.5.38-.72.62-.57.59-.57,1.81-.38,1.75.07-.02.6-.65.58-.65.38-.18.87-.75,1.5-1.08,1.17-.62,1.9-.74,1.9-.74,0,0-1.29.8-1.82,1.17-.53.41-.75.76-1.08,1.19-.77.59-.61.75-.73,1.39-.12.84.51,1.75.51,1.75,0,0,.21-.94.71-1.57.1-.12.45-.82.55-.94.31-.32.61-.64.92-.96.98-.6,1.8-1,2.8-1.56.33-.07.71-.05,1.04-.32.08.02.2-.04.25.06-.41.73-.88,1.6-1.44,2.26-.83,1.49-1.55,3.05-2.27,4.52-.27.46-.46,1.06-.84,1.56-.14.46-.35.89-.52,1.34-.14.35-.19.8-.37,1.12-.09.19-.25.29-.34.51-.04.08-.05.19-.06.29l-9.97-.58c-1.73-.11-3.43-.5-5.16-.52-1.64-.02-3.25.3-4.88.36-2.97.09-5.81.25-8.78.08-3.49-.22-7.02-.49-10.5,0-.42-.19-1.04.09-1.5,0-1.07.23-12.5,1.68-15.26,2.71,0,0-1.01.25-2.07.51h-.01v.56h89.26v-.56h-.02.02Z" style="fill:#0081ab;"/><path d="M116.18,48.85c-4.38,0-8.79-2.07-8.79-6.68s4.41-6.78,8.79-6.78,8.79,2.08,8.79,6.74-4.42,6.71-8.79,6.71h0ZM116.14,37.31c-3.81,0-6.01,1.77-6.01,4.83s2.19,4.81,6.01,4.81,6.08-1.7,6.08-4.78-2.27-4.87-6.08-4.87h0Z" style="fill:#0081ab;"/><path d="M143.66,48.67h-1.95l-.06-.56c.06-2.83.06-5.88.03-9.06-1.66,2.21-5.03,6.83-5.03,6.83l-1.38.06s-3.35-4.72-4.93-6.87c-.02,2.78.05,9.54.05,9.54l-.57.05h-1.61l-.06-.56c.07-3.71.07-9.2,0-11.99v-.51l.73-.05h1.97c2.06,2.95,3.05,4.31,5.41,7.53,1.58-1.85,5.54-7.53,5.54-7.53h2.3l.13.56c-.06,3.77-.11,8.14,0,11.97l.02.51-.57.08h-.02Z" style="fill:#0081ab;"/><path d="M149.83,48.67h-1.97l-.06-.56c.08-3.72.08-9.04,0-11.85l-.02-.49c1.88-.27,4.17-.37,6.52-.37,1.9,0,7.69,0,7.69,4.37,0,2.84-2.88,4.4-8.11,4.4-1.28,0-2.52-.07-3.53-.13,0,1.49.02,2.94.04,4.08v.51l-.56.05h0ZM150.35,42.07c.7.08,1.73.18,3.27.18,5.25,0,5.69-1.26,5.69-2.44,0-1.62-.85-2.5-5.37-2.5-1.49,0-2.56.12-3.57.26-.02,1.05-.02,2.71-.02,4.5h0Z" style="fill:#0081ab;"/><path d="M171.78,48.67h-2l-.05-.58c.06-3.39.07-7.75,0-10.62-1.99.03-3.69.1-5.46.23l-.53.04-.05-.61v-1.53l.56-.05c2.29.02,4.54.03,6.8.03s4.51,0,6.78-.03h.51l.05.56v1.57l-.59.04c-1.72-.13-3.47-.19-5.47-.23-.05,3.83-.03,6.98,0,10.65v.5l-.57.05h0l.02-.02Z" style="fill:#0081ab;"/><path d="M188.13,48.85c-4.38,0-8.79-2.07-8.79-6.68s4.42-6.78,8.79-6.78,8.79,2.08,8.79,6.74-4.41,6.71-8.79,6.71h0ZM188.1,37.31c-3.81,0-6,1.77-6,4.83s2.13,4.81,6,4.81,6.08-1.7,6.08-4.78-2.28-4.87-6.08-4.87h0Z" style="fill:#0081ab;"/><path d="M202.17,48.67h-1.96l-.05-.56c.08-3.71.08-9.19,0-11.97l-.02-.51.58-.07h1.96l.07.56c-.07,4.01-.05,7.7-.02,12v.5l-.57.05h.01Z" style="fill:#0081ab;"/><path d="M220.76,48.67h-2.35l-.15-.16c-1.19-1.31-2.86-2.95-4.84-4.74h-1.14c-1.16,0-2.37-.08-3.35-.14,0,1.61.02,3.22.04,4.46v.5l-.57.08h-1.94l-.07-.56c.08-3.73.08-9.06,0-11.87v-.49l.55-.1,1-.07c1.2-.08,2.71-.18,4.76-.18,1.92,0,7.75,0,7.75,4.16,0,1.33-.73,3.01-4.05,3.71,1.11,1.17,2.52,2.55,4.73,4.42l1.03.87-1.4.09h0v.02ZM208.93,41.7c.77.1,1.73.18,3.1.18,5.08,0,5.78-1.1,5.78-2.28,0-1.5-.86-2.27-5.46-2.27-1.63,0-2.53.1-3.39.24-.03.97-.03,2.48-.03,4.12h0Z" style="fill:#0081ab;"/><path d="M97.94,48.85c-5.54,0-9.12-2.6-9.12-6.63s3.7-6.82,9-6.82c3.39,0,5.23.61,6.47,1.12v2.61c-1.91-1.13-3.46-1.81-6.41-1.81-1.9,0-6.3.48-6.3,4.91,0,3.14,2.14,4.73,6.36,4.73,3.12,0,4.11-.39,6.62-2.2l.09,2.45-.24.15c-.75.46-2.9,1.51-6.47,1.51h0v-.02Z" style="fill:#0081ab;"/><path d="M135.54,99.44h-1.32l-.04-.35c.04-2.19.04-5.31,0-6.97v-.3l.35-.06.76-.04c.72-.04,1.61-.1,2.88-.1,2.16,0,5.02.26,5.02,2.5,0,1.71-1.86,2.66-5.26,2.66-.67,0-1.44-.05-2.06-.09,0,.87,0,1.71.03,2.39v.32l-.35.05h-.01ZM135.87,95.5c.48.06,1.1.1,1.9.1,3.38,0,3.66-.74,3.66-1.44,0-.87-.55-1.35-3.48-1.35-.96,0-1.47.05-2.07.14-.02.6-.02,1.54-.02,2.55h.01Z" style="fill:#0081ab;"/><path d="M153.61,99.44h-1.45l-.09-.15-1.2-2.04c-.8-.02-1.78-.02-2.77-.02-.83,0-1.67,0-2.42.02l-1.26,2.04-.09.15h-1.63l.32-.54c1.44-2.01,3.08-4.52,4.6-7.04l.09-.15h1.62l.1.16c1.45,2.48,2.78,4.59,4.49,7.04l.34.49-.63.05h-.02ZM146.41,96.07h3.74c-.57-.94-1.21-1.95-1.87-2.96-.7,1.07-1.31,2.04-1.88,2.95h.01Z" style="fill:#0081ab;"/><path d="M164.33,99.44h-1.63l-.09-.1c-.77-.81-1.81-1.81-2.92-2.77h-.56c-.67,0-1.36-.03-1.95-.07,0,.93.02,1.85.03,2.58v.32l-.37.04h-1.3l-.04-.35c.04-2.18.04-5.3,0-6.96l-.02-.29.35-.08.36-.02c.8-.06,1.77-.13,3.19-.13,2.28,0,4.9.27,4.9,2.42,0,1.13-.9,1.92-2.57,2.26.82.8,1.7,1.58,2.86,2.54l.67.56-.9.05h-.01ZM157.17,95.3c.44.04,1,.1,1.79.1,3.28,0,3.55-.69,3.55-1.35,0-.91-.5-1.24-3.35-1.24-.96,0-1.4.04-1.96.14-.02.56-.02,1.42-.02,2.36h0Z" style="fill:#0081ab;"/><path d="M167.93,99.44h-1.3l-.05-.35c.04-2.18.04-5.37,0-7v-.32l.35-.06h1.34l.03.38c-.03,2.43-.02,4.65,0,6.94v.31l-.36.1h0Z" style="fill:#0081ab;"/><path d="M11.45,80.36c-6.77,0-10.08-1.83-10.94-2.4l-.51-.34v-5.12c3.54,2.93,6.81,4.14,11.61,4.14,2.87,0,7.67-.4,7.67-3.12,0-.99-.78-1.62-2.35-1.86-1.15-.19-2.62-.24-4.18-.28-2.29-.07-4.88-.16-7.3-.71-4.13-.93-5-3.46-5-5.41,0-2.46,1.46-6.6,11.22-6.6,5.41,0,8.41,1.04,9.97,1.9l.59.33v4.69c-2.59-1.8-5.66-3.21-10.71-3.21-4.27,0-6.72.88-6.72,2.43,0,.45,0,1.28,2.1,1.69,1.52.3,3.41.36,5.41.41,1.83.06,3.73.12,5.49.37,3.98.57,6,2.41,6,5.45,0,2.29-1.2,7.62-12.35,7.62h0v.02Z" style="fill:#0081ab;"/><path d="M38.72,80.36c-3.84,0-6.58-.88-8.38-2.7-1.57-1.59-2.36-3.87-2.33-6.78.02-1.71.04-2.97.06-4,.03-2.51.05-3.65-.04-6.71l-.04-1.17,1.31-.1h3.48l.11,1.28c-.03,3.48-.05,6.59-.05,11,0,3.54,1.03,5.46,6.49,5.46,3.5,0,6.33-.95,8.38-2.76.06-4.99.03-10.37-.06-13.71l-.03-1.17,1.3-.1h3.61l.06,1.26c-.12,6.73-.08,12.93-.02,18.64v1.16l-1.27.11h-3.07s-.15-2.1-.16-2.25c-2.12,1.37-5,2.52-9.37,2.52h0l.02.02Z" style="fill:#0081ab;"/><path d="M68.7,80.36c-2.69,0-4.75-.16-6.42-.16-1.38,0-4.41-.23-4.41-.23,0,0,.03-15.22-.1-19.61l-.03-1.14,1.26-.15c.69-.03,1.35-.08,2.08-.13,1.72-.12,3.86-.26,7.62-.26,9.52,0,15.67,4.33,15.67,11.04,0,6.27-6.44,10.64-15.67,10.64h0ZM62.63,76.38s.06,0,.1.02c1.13.13,2.42.29,5.55.29,7.25,0,10.92-2.33,10.92-6.91,0-4.9-3.72-7.39-11.08-7.39-2.57,0-4.02.17-5.51.39-.06,3.13-.04,8.91,0,13.6h.02Z" style="fill:#0081ab;"/><path d="M99.67,80.08h-3.55l-.1-1.25c.12-5.8.12-14.06,0-18.43l-.03-1.13,1.22-.19c.68-.03,1.37-.08,2.12-.13,1.81-.12,4.05-.26,7.63-.26,3.2,0,12.92,0,12.92,7.16,0,2.7-1.76,7.22-13.59,7.22-1.95,0-3.84-.08-5.44-.19,0,2.17.03,4.29.05,5.97l.02,1.15-1.26.09h.01ZM100.85,69.09c1.13.12,2.74.23,5.04.23,8.27,0,8.95-1.77,8.95-3.43,0-1.92-.63-3.52-8.44-3.52-2.29,0-3.93.16-5.51.37-.03,1.55-.04,3.86-.04,6.34h0Z" style="fill:#0081ab;"/><path d="M145.87,80.08h-3.68l-.33-.57-.33-.58c-.79-1.35-1.71-2.94-2.76-4.66-2.12-.03-4.69-.05-7.3-.05-2.11,0-4.23.01-6.15.05-1.14,1.88-2.22,3.64-3.25,5.28l-.33.53h-4.97l1.22-1.93c3.42-4.7,7.51-10.98,12.15-18.68l.33-.55h4.25l.32.56c3.92,6.7,7.48,12.29,11.9,18.7l1.25,1.79-2.31.11h-.01ZM127.5,70.71h3.1c1.95,0,4.01,0,5.97-.02-1.5-2.45-3.03-4.85-4.53-7.16-1.54,2.38-3.04,4.75-4.54,7.17h0Z" style="fill:#0081ab;"/><path d="M163.23,80.36c-9.24,0-15.22-4.2-15.22-10.71s6.19-10.98,15.04-10.98c6.01,0,9.04,1.15,10.17,1.58l.74.28v4.87c-3.37-2.09-5.86-3.03-10.82-3.03-3,0-9.96.7-9.96,7.27,0,4.64,3.38,6.99,10.05,6.99,4.79,0,8.17-1.35,11.17-3.68l.15,1.62v3.06l-.58.33c-1.26.71-4.84,2.39-10.74,2.39h0Z" style="fill:#0081ab;"/><path d="M183.29,80.09h-3.53l-.06-1.26c.12-5.76.12-14.29,0-18.61l-.04-1.18,1.26-.12h3.57l.09,1.26c-.12,6.73-.08,12.95-.03,18.67v1.15l-1.27.09h0Z" style="fill:#0081ab;"/><path d="M193.36,80.08h-3.53l-.09-1.25c.12-5.77.12-14.29,0-18.62l-.03-1.18,1.26-.12s13.45,0,19.12-.03h1.15l.09,1.27v2.7l-1.31.08c-4.44-.17-9.4-.27-13.58-.27-.66,0-1.28,0-1.85.02,0,1.38-.02,3.73-.04,5.42,1.01.01,2.11.02,3.25.02,2.95,0,6.25-.04,9.31-.1l1.16-.02.12,1.25v2.38l-1.26.09c-2.53-.05-5.52-.11-8.67-.11-1.3,0-2.61.01-3.92.02.02,2.86.04,7.21.04,7.21v1.14l-1.23.09h.01Z" style="fill:#0081ab;"/><path d="M219.46,80.08h-3.53l-.06-1.25c.12-5.77.12-14.29,0-18.61l-.04-1.18,1.27-.12h3.55l.1,1.26c-.12,6.73-.09,12.95-.03,18.67l.02,1.16-1.28.08h0Z" style="fill:#0081ab;"/><path d="M252.69,83.87h-4.06l-.34-.43c-.95-1.22-2-2.46-3.11-3.7-1.7.41-3.51.63-5.28.63-7.31,0-14.7-3.33-14.7-10.77s7.39-10.91,14.7-10.91,14.71,3.35,14.71,10.85c0,3.55-1.77,6.5-5.01,8.45,1.33,1.35,2.64,2.62,3.93,3.77l2.23,1.99-3.05.12h-.02ZM240.71,71.94h3.48l.34.42c.68.84,1.45,1.74,2.28,2.67,1.77-1.17,2.62-2.96,2.62-5.44,0-4.51-3.59-7.21-9.61-7.21h0c-6.02,0-9.48,2.6-9.48,7.15,0,6.2,5.94,7.12,9.48,7.12.84,0,1.65-.04,2.4-.12-.85-.9-1.63-1.71-2.3-2.4l-.68-.69.44-.92.35-.47" style="fill:#0081ab;"/><path d="M309.74,80.12h-.6c-3.9-.03-9.28-.05-13.81-.05-2.11,0-4.04,0-5.54.02l-1.19.02-.06-1.31c.12-5.76.12-14.29,0-18.62l-.03-1.17,1.3-.1h1.42c3.57,0,12.94,0,17.49-.02h1.16l.12,1.23v2.7l-1.29.08c-4.46-.16-9.37-.26-13.47-.26h-1.86c0,1.3-.02,3.48-.04,5.1,1.04.01,2.14.02,3.28.02,2.78,0,5.83-.03,8.83-.08l1.17-.03.12,1.25v2.45l-1.25.06c-2.53-.06-5.35-.11-8.35-.11-1.23,0-2.5.01-3.79.03.02,1.72.03,3.81.04,5.07.62,0,1.31.01,2.04.01,4.5,0,9.83-.1,14.25-.27l1.19-.05.12,1.34v2.61l-1.25.08h0Z" style="fill:#0081ab;"/><path d="M269.49,80.36c-3.84,0-6.58-.88-8.38-2.7-1.57-1.59-2.36-3.87-2.33-6.78.02-1.71.04-2.97.06-4,.03-2.51.05-3.65-.04-6.71l-.03-1.17,1.31-.1h3.48l.11,1.28c-.03,3.48-.05,6.59-.05,11,0,3.54,1.03,5.46,6.48,5.46,3.51,0,6.33-.95,8.39-2.76.05-4.99.02-10.37-.07-13.71l-.04-1.17,1.3-.1h3.61l.06,1.26c-.12,6.73-.08,12.93-.02,18.64v1.16l-1.27.11h-3.07s-.15-2.1-.16-2.25c-2.12,1.37-4.99,2.52-9.37,2.52h0l.03.02Z" style="fill:#0081ab;"/></g></svg>