<?xml version="1.0" encoding="UTF-8"?>
<svg id="Layer_1" data-name="Layer 1" xmlns="http://www.w3.org/2000/svg" viewBox="0 0 841.9 595.3">
  <defs>
    <style>
      .cls-1 {
        fill: none;
      }

      .cls-2 {
        fill: #010101;
      }

      .cls-3 {
        fill: #231f20;
      }

      .cls-4 {
        fill: #020202;
      }
    </style>
  </defs>
  <g>
    <path class="cls-3" d="M166.16,251.91c-4.45,0-8.43-.8-12.25-2.23s-7-3.66-9.86-6.52c-2.86-2.86-5.09-6.2-6.68-10.18s-2.39-8.43-2.39-13.52.8-9.7,2.55-13.84c1.75-4.14,4.14-7.8,7.32-10.98,3.18-3.02,6.84-5.41,11.14-7.16s9.07-2.55,14.16-2.55,6.52.32,10.18.95c3.5.64,6.84,1.75,9.86,3.18l-1.43,20.21h-3.66c-.32-4.61-1.27-8.27-2.86-10.82s-3.66-4.45-6.36-5.57-5.89-1.59-9.55-1.59-9.07.95-12.41,2.86-6.05,4.77-7.8,8.43-2.7,8.11-2.7,13.36.64,7.16,1.91,10.66,3.02,6.68,5.41,9.55,5.09,5.09,8.27,6.84c3.18,1.75,6.68,2.55,10.5,2.55s8.91-1.27,11.93-3.82,4.93-6.2,6.05-10.98h3.18l-.64,14.32c-1.59,1.27-3.66,2.39-6.2,3.5-2.55.95-5.41,1.75-8.43,2.23s-6.05.8-9.23.8h0v.32Z"/>
    <path class="cls-3" d="M239.34,251.91c-4.14,0-8.11-.8-11.93-2.23-3.66-1.43-7-3.5-9.86-6.36-2.86-2.7-5.09-6.2-6.52-10.18-1.59-3.98-2.39-8.59-2.39-13.68s.95-9.7,2.7-13.84c1.75-4.14,4.3-7.8,7.32-10.82,3.18-3.02,6.68-5.41,10.82-7.16s8.27-2.55,12.73-2.55,8.11.64,11.93,2.23c3.66,1.43,7,3.5,9.86,6.36s4.93,6.2,6.52,10.18,2.39,8.59,2.39,13.68-.95,9.55-2.7,13.84c-1.75,4.14-4.3,7.8-7.32,10.98s-6.68,5.41-10.82,7.16-8.27,2.55-12.73,2.55v-.16ZM217.23,215.96c0,3.66.64,7.16,1.91,10.82s3.02,6.68,5.41,9.55,5.09,5.09,8.27,6.84c3.18,1.75,6.68,2.55,10.5,2.55s8.27-.95,11.46-3.02,5.57-4.77,7.32-8.43,2.55-8.11,2.55-13.21-.64-7.32-1.91-10.82c-1.27-3.5-3.02-6.68-5.41-9.55s-5.09-5.09-8.27-6.84-6.68-2.55-10.5-2.55-8.11.95-11.46,2.86c-3.18,1.91-5.73,4.77-7.32,8.43s-2.55,8.11-2.55,13.21h0v.16Z"/>
    <path class="cls-3" d="M323.18,250.64l-20.36-52.82-.48,48.05h4.61c1.59,0,3.02.32,4.61.64l-.95,3.98h-23.07v-3.98c1.27,0,2.7-.48,4.45-1.11s3.34-1.27,4.45-2.07l.95-51.23c-3.18-.32-6.2-.95-8.91-1.91v-3.98h18.46l21.48,59.18,21.48-59.18h17.5v3.98c-1.59.32-3.02.95-4.61,1.75s-3.02,1.59-4.3,2.39l.95,51.39h4.61c1.59,0,3.02.32,4.61.64l-.95,3.98h-25.3v-3.98c1.59-.32,3.18-.8,4.77-1.27,1.75-.48,3.02-1.11,3.98-1.75l-.8-44.23-19.09,51.23h-8.43l.32.32Z"/>
    <path class="cls-3" d="M386.51,250.64v-3.82c1.59-.32,3.02-.8,4.61-1.27,1.43-.48,3.02-.95,4.3-1.59v-51.71c-1.59-.32-3.02-.64-4.61-1.11-1.59-.32-3.02-.8-4.3-1.27v-3.82h30.71c5.09,0,9.39,1.59,12.57,4.61s4.77,7.48,4.77,12.89-.8,7-2.07,9.7c-1.43,2.86-3.34,5.25-5.73,7.16s-4.93,3.5-7.8,4.45-5.73,1.43-8.59,1.43h-6.84v19.25h5.41c1.75.16,3.5.48,5.25.8l-.95,3.82h-26.89l.16.48ZM403.53,221.68h8.11c4.45,0,7.95-1.27,10.5-3.98s3.98-6.2,3.98-10.5-1.43-9.23-4.14-11.93-6.36-4.14-10.66-4.14h-7.8v30.55h0Z"/>
    <path class="cls-3" d="M463.99,250.64v-3.98c1.91-.32,3.82-.8,5.73-1.43s3.82-1.27,5.73-1.91v-51.87h-9.07c-2.86,0-5.41,1.11-7.48,3.34-2.07,2.23-3.5,5.41-4.14,9.86h-4.14l2.07-18.46h52.02l2.39,18.3h-3.82c-1.43-4.61-3.18-7.95-5.25-10.02s-4.61-3.02-7.48-3.02h-7.16v52.98c2.07.32,3.98.48,5.89.95,1.91.32,3.66.8,5.57,1.27l-.95,3.98h-30.07.16Z"/>
    <path class="cls-3" d="M554.19,251.91c-4.14,0-8.11-.8-11.93-2.23-3.66-1.43-7-3.5-9.86-6.36-2.86-2.7-5.09-6.2-6.52-10.18-1.59-3.98-2.39-8.59-2.39-13.68s.95-9.7,2.7-13.84c1.75-4.14,4.3-7.8,7.32-10.82,3.18-3.02,6.68-5.41,10.82-7.16s8.27-2.55,12.73-2.55,8.11.64,11.93,2.23c3.66,1.43,7,3.5,9.86,6.36,2.86,2.7,5.09,6.2,6.52,10.18,1.59,3.98,2.39,8.59,2.39,13.68s-.95,9.55-2.7,13.84c-1.75,4.14-4.3,7.8-7.48,10.98s-6.68,5.41-10.82,7.16c-3.98,1.75-8.27,2.55-12.73,2.55h0l.16-.16ZM531.92,215.96c0,3.66.64,7.16,1.91,10.82s3.02,6.68,5.41,9.55,5.09,5.09,8.27,6.84c3.18,1.75,6.68,2.55,10.5,2.55s8.27-.95,11.46-3.02,5.57-4.77,7.32-8.43,2.55-8.11,2.55-13.21-.64-7.32-1.91-10.82-3.02-6.68-5.41-9.55-5.09-5.09-8.27-6.84-6.68-2.55-10.5-2.55-8.11.95-11.46,2.86c-3.18,1.91-5.73,4.77-7.32,8.43s-2.55,8.11-2.55,13.21h0v.16Z"/>
    <path class="cls-3" d="M604.47,250.64v-3.98c1.59-.32,3.18-.8,4.77-1.27s2.86-.95,4.14-1.59v-51.39c-1.43-.32-3.02-.48-4.45-.8s-3.02-.64-4.45-1.27v-3.98h25.77v3.98c-1.59.32-3.18.8-4.77,1.27-1.43.48-2.86.95-4.14,1.43v51.23c1.59.32,3.02.64,4.61.95,1.43.32,2.86.8,4.3,1.43l-.95,3.98h-24.98.16Z"/>
    <path class="cls-3" d="M650.61,250.64v-3.98c1.59-.32,3.02-.8,4.61-1.27,1.43-.48,2.86-.95,4.3-1.59v-51.39c-1.59-.32-3.02-.64-4.61-.95s-3.02-.64-4.3-1.11v-3.98h30.71c5.09,0,9.39,1.43,12.57,4.14s4.77,6.52,4.77,11.45-.64,5.41-1.91,7.8-2.86,4.45-4.77,6.2-4.3,3.18-6.68,4.3c1.91,4.61,3.66,8.59,5.57,11.77s3.82,5.73,6.05,7.8,4.45,3.66,7,4.77,5.41,2.07,8.43,2.55v3.82c-5.09.64-9.55.32-13.05-.8s-6.52-3.02-9.07-5.57c-2.55-2.55-4.77-5.73-6.84-9.55s-4.14-8.11-6.2-12.73h-9.55v23.55c1.75,0,3.5.16,5.25.32s3.66.32,5.41.64l-.95,3.98h-26.89l.16-.16ZM667.63,217.23h9.07c4.45,0,7.8-1.11,10.02-3.18s3.5-5.09,3.5-8.91-1.43-7.95-4.14-10.18c-2.7-2.39-6.36-3.5-10.66-3.5h-7.8v25.77h0Z"/>
    <g>
      <path class="cls-3" d="M22.17,348.96c-2.07,0-4.45-.16-7-.48s-4.93-.64-6.84-1.11l-1.43-17.02h4.14c.8,3.5,2.07,6.2,3.82,8.11,1.75,1.75,3.66,3.02,6.05,3.66s4.77.95,7.32.95,4.77-.48,6.52-1.59,3.18-2.55,4.14-4.3,1.43-3.66,1.43-5.73-.64-4.61-1.91-6.2-3.02-2.86-5.09-3.82-4.45-1.75-7-2.55c-2.07-.64-4.3-1.43-6.52-2.23s-4.14-1.75-6.05-3.02-3.34-3.02-4.3-4.93c-1.11-2.07-1.59-4.61-1.59-7.8s.95-6.84,3.02-9.7c2.07-2.86,4.77-4.93,8.27-6.52s7.32-2.39,11.61-2.39,4.45.16,6.52.64c2.23.32,3.98.8,5.57.95l2.23,13.52-3.5.8c-1.11-3.66-2.86-6.2-5.57-7.64s-5.89-2.23-9.55-2.23-3.66.32-5.41.95c-1.75.64-3.02,1.75-4.14,3.34s-1.43,3.5-1.43,6.05.8,4.93,2.39,6.52,3.66,2.86,6.2,3.82c2.55.95,5.09,1.91,7.8,2.86,2.55.8,5.09,1.91,7.64,3.34s4.45,3.18,6.05,5.41,2.39,4.93,2.39,8.11-.95,7.16-3.18,10.18c-2.07,3.02-5.09,5.57-8.75,7.32-3.82,1.91-8.27,2.7-13.52,2.7h-.32Z"/>
      <path class="cls-3" d="M99.81,348.96c-7.95,0-14.16-2.07-18.46-6.2-4.3-4.14-6.52-9.86-6.52-17.34v-36.59c-1.43-.16-2.7-.32-4.14-.64s-2.7-.48-3.98-.95v-3.98h25.14v3.98c-1.59.48-3.02.95-4.61,1.59s-3.02,1.27-4.3,1.91v31.02c0,6.52,1.59,11.61,4.77,15.27,3.18,3.5,7.64,5.41,13.52,5.41s6.2-.64,8.75-1.75,4.61-3.02,6.05-5.73c1.43-2.7,2.23-6.2,2.23-10.82v-35.32c-1.59,0-3.02-.32-4.61-.48-1.43-.16-3.02-.48-4.3-.95v-3.98h22.91v3.98c-1.43.48-2.86.95-4.3,1.43s-2.55,1.27-3.82,2.07v33.09c0,5.57-1.11,10.34-3.18,14-2.23,3.66-5.09,6.52-8.75,8.27s-7.95,2.7-12.57,2.7h.16Z"/>
      <path class="cls-3" d="M147.54,347.69v-3.98c1.59-.32,3.02-.8,4.61-1.27,1.43-.48,3.02-.95,4.3-1.43v-51.39c-1.59-.32-3.02-.64-4.61-.95-1.43-.32-3.02-.64-4.3-1.11v-3.98h36.43c3.66,0,7.16.64,10.5,1.75s6.36,2.86,8.91,5.25,4.77,5.41,6.2,8.91c1.59,3.5,2.39,7.8,2.39,12.73s-.8,9.39-2.39,13.68-3.82,8.11-6.84,11.46-6.68,5.89-10.98,7.8-9.23,2.86-14.8,2.86h-29.43v-.32ZM164.41,334.16c0,2.07.32,3.82.8,4.93.48,1.27,1.59,2.07,3.02,2.55,1.43.48,3.5.8,6.36.8,5.41,0,10.02-.8,13.68-2.39s6.68-3.82,8.91-6.36,3.82-5.57,4.77-8.59c.95-3.18,1.43-6.2,1.43-9.23,0-5.57-1.11-10.34-3.5-14.48s-5.57-7.32-9.7-9.55-9.23-3.34-14.96-3.34h-10.98v45.66h.16Z"/>
      <path class="cls-3" d="M261.93,347.69v-3.82c1.59-.32,3.02-.8,4.61-1.27s3.02-.95,4.3-1.59v-51.71c-1.59-.32-3.02-.64-4.61-1.11-1.59-.32-3.02-.8-4.3-1.27v-3.82h30.71c5.09,0,9.39,1.59,12.57,4.61s4.77,7.48,4.77,12.89-.8,7-2.07,9.7c-1.43,2.86-3.34,5.25-5.73,7.16s-4.93,3.5-7.8,4.45c-2.86.95-5.73,1.43-8.59,1.43h-6.84v19.09h5.41c1.75.16,3.5.48,5.25.8l-.95,3.82h-26.89l.16.64ZM278.96,318.73h8.11c4.45,0,7.95-1.27,10.5-3.98,2.55-2.55,3.98-6.2,3.98-10.5s-1.43-9.23-4.14-11.93-6.36-4.14-10.66-4.14h-7.8v30.55Z"/>
      <path class="cls-3" d="M318.57,347.69v-3.82c.64,0,1.43-.32,2.55-.8s1.91-.8,3.02-1.43c.95-.48,1.59-.95,2.07-1.43l21.96-56.96c2.39-.32,4.77-.32,7.16,0l23.23,59.66c1.27,0,2.55.16,3.5.32s2.07.32,3.02.64l-.95,3.82h-25.77v-3.82c1.75-.32,3.34-.8,5.09-1.43,1.59-.64,3.18-1.43,4.61-2.23l-4.93-13.05h-26.25l-5.41,15.11c1.91,0,3.66.32,5.41.64,1.75.32,3.5.64,5.09,1.11l-.95,3.82h-22.59l.16-.16ZM338.62,322.39h22.59l-11.77-30.71-10.82,30.71h0Z"/>
      <path class="cls-3" d="M425.96,348.96c-4.45,0-8.43-.8-12.25-2.23-3.82-1.43-7.16-3.66-9.86-6.52s-5.09-6.2-6.68-10.18-2.39-8.43-2.39-13.52.8-9.7,2.55-13.84,4.14-7.8,7.32-10.98,6.84-5.41,11.14-7.16,9.07-2.55,14.16-2.55,6.52.32,10.18.95c3.5.64,6.84,1.75,9.86,3.18l-1.43,20.21h-3.66c-.32-4.61-1.27-8.27-2.86-10.82-1.59-2.55-3.66-4.45-6.36-5.57s-5.89-1.59-9.55-1.59-9.07.95-12.41,2.86c-3.34,1.91-6.05,4.77-7.8,8.43s-2.7,8.11-2.7,13.36.64,7.16,1.91,10.66c1.27,3.5,3.02,6.68,5.41,9.55s5.09,5.09,8.27,6.84c3.18,1.75,6.68,2.55,10.5,2.55s8.91-1.27,11.93-3.82,4.93-6.2,6.05-10.98h3.18l-.64,14.32c-1.59,1.27-3.66,2.39-6.2,3.5-2.55.95-5.41,1.75-8.43,2.23s-6.05.8-9.23.8h0v.32Z"/>
      <path class="cls-3" d="M470.35,347.69v-3.98c1.59-.32,3.18-.8,4.77-1.27s2.86-.95,4.14-1.59v-51.39c-1.43-.32-3.02-.48-4.45-.8-1.59-.32-3.02-.8-4.45-1.27v-3.98h25.77v3.98c-1.59.32-3.18.8-4.77,1.27s-2.86.95-4.14,1.43v51.23c1.59.32,3.02.64,4.61.95,1.43.32,3.02.8,4.3,1.43l-.95,3.98h-24.98.16Z"/>
      <path class="cls-3" d="M516.49,347.69v-3.98c1.59-.32,3.18-.8,4.77-1.27s2.86-.95,4.14-1.43v-51.39c-1.43-.32-3.02-.48-4.45-.8-1.59-.32-3.02-.8-4.45-1.27v-3.98h46.46l-2.7,16.71h-3.66c-.16-1.91-.64-3.82-.95-5.73s-.8-3.82-1.43-5.73h-20.68v25.77h21c.95-2.07,1.75-4.3,2.07-6.68h3.82v19.41h-3.66c-.16-1.27-.64-2.55-.95-3.82s-.8-2.55-1.27-3.66h-21v22.27c2.07.16,3.98.48,6.05.8,1.91.32,3.98.8,6.05,1.43l-.95,3.82h-28l-.16-.48Z"/>
      <path class="cls-3" d="M582.35,347.69v-3.98c1.59-.32,3.18-.8,4.77-1.27s2.86-.95,4.14-1.59v-51.39c-1.43-.32-3.02-.48-4.45-.8s-3.02-.8-4.45-1.27v-3.98h25.77v3.98c-1.59.32-3.18.8-4.77,1.27s-2.86.95-4.14,1.43v51.23c1.59.32,3.02.64,4.61.95,1.43.32,2.86.8,4.3,1.43l-.95,3.98h-24.98.16Z"/>
      <path class="cls-3" d="M697.38,366.3c-5.57,1.91-10.82,2.86-15.91,2.7-5.09-.16-9.86-1.75-14.48-4.93s-9.07-8.11-13.52-15.11c-5.25-.32-10.02-1.75-14.32-4.45-4.3-2.7-7.64-6.36-10.18-10.98s-3.82-10.34-3.82-16.71.95-9.7,2.7-13.84c1.75-4.14,4.3-7.8,7.48-10.82s6.68-5.41,10.82-7.16,8.27-2.55,12.73-2.55,8.11.8,11.93,2.23c3.66,1.43,7,3.5,9.86,6.36,2.86,2.7,5.09,6.2,6.52,10.18s2.39,8.59,2.39,13.68-1.11,10.98-3.5,15.59-5.41,8.43-9.39,11.61-8.27,5.25-13.21,6.36c3.18,5.09,6.68,8.91,10.34,11.3s7.32,3.66,11.14,3.82,7.8-.32,11.77-1.59l.95,4.61h0l-.32-.32ZM633.42,313c0,3.66.64,7.16,1.91,10.82s3.02,6.68,5.41,9.55,5.09,5.09,8.27,6.84c3.18,1.75,6.68,2.55,10.5,2.55s8.27-.95,11.46-3.02,5.57-4.77,7.32-8.43,2.55-8.11,2.55-13.21-.64-7.32-1.91-10.82c-1.27-3.5-3.02-6.68-5.41-9.55s-5.09-5.09-8.27-6.84-6.68-2.55-10.5-2.55-8.27.95-11.46,2.86c-3.18,1.91-5.73,4.77-7.32,8.43s-2.55,8.11-2.55,13.21h0v.16Z"/>
      <path class="cls-3" d="M736.2,348.96c-7.95,0-14.16-2.07-18.46-6.2-4.3-4.14-6.52-9.86-6.52-17.34v-36.59c-1.43-.16-2.7-.32-3.98-.64-1.27-.16-2.7-.48-3.98-.95v-3.98h25.14v3.98c-1.59.48-3.02.95-4.61,1.59s-3.02,1.27-4.3,1.91v31.02c0,6.52,1.59,11.61,4.77,15.27,3.18,3.5,7.64,5.41,13.52,5.41s6.2-.64,8.75-1.75,4.61-3.02,6.05-5.73c1.43-2.7,2.23-6.2,2.23-10.82v-35.32c-1.59,0-3.02-.32-4.61-.48-1.59-.16-3.02-.48-4.3-.95v-3.98h22.91v3.98c-1.43.48-2.86.95-4.3,1.43-1.27.64-2.55,1.27-3.82,2.07v33.09c0,5.57-1.11,10.34-3.18,14-2.23,3.66-5.09,6.52-8.75,8.27s-7.95,2.7-12.57,2.7h0Z"/>
      <path class="cls-3" d="M783.77,347.69v-3.98c1.59-.32,3.18-.8,4.77-1.27s2.86-.95,4.14-1.43v-51.39c-1.43-.32-3.02-.48-4.45-.95-1.59-.32-3.02-.8-4.45-1.11v-3.98h47.25l-2.7,16.86h-3.66c-.32-1.91-.48-3.98-.95-6.05-.32-1.91-.8-3.98-1.43-5.73h-21.64v24.5h21.8c.48-1.11.95-2.23,1.27-3.34s.64-2.39.95-3.66h3.66v19.89h-3.66c-.32-1.43-.48-2.7-.95-4.14-.32-1.27-.8-2.55-1.27-3.82h-21.8v24.5h16.86c1.91,0,3.82-.64,5.41-2.07s3.18-3.18,4.77-5.25c1.43-2.07,2.7-4.14,3.82-6.2l3.5,1.11-5.73,17.5h-45.66.16Z"/>
    </g>
  </g>
  <g>
    <rect class="cls-1" x="283.89" y="378.71" width="274.12" height="123.14"/>
    <path class="cls-2" d="M354.69,414.19v-31.82h8.59c8.11-.32,12.09,3.98,12.09,8.59,0,7-5.57,10.5-12.41,10.5s-2.86,0-4.3-.16v12.89h-4.14.16ZM358.82,384.44v14.64c1.11.32,2.39.32,4.14.32,4.61,0,8.11-2.86,8.11-7.48s-3.18-7.48-7.8-7.48h-4.45Z"/>
    <path class="cls-2" d="M402.1,414.19l-3.5-10.82h-11.77l-3.5,10.82h-2.39l9.86-29.59v-1.43l4.93-1.75,10.98,32.61h-4.45l-.16.16ZM392.87,386.03h-.32l-5.09,15.27h10.34l-4.93-15.27h0Z"/>
    <path class="cls-2" d="M434.39,414.19l-8.43-13.68h-4.93c0-.16,0,13.68,0,13.68h-4.14v-31.82h9.07c7.95-.48,11.46,3.34,11.46,7.95s-2.86,7.8-7.48,9.07l9.39,14.64h-4.93v.16ZM420.87,384.44v13.68c.95.16,2.55.32,3.82.32,4.77,0,8.27-2.55,8.27-7s-2.86-7-7.8-7h-4.3Z"/>
    <path class="cls-2" d="M450.78,414.19v-31.82h4.14v31.82h-4.14Z"/>
    <path class="cls-2" d="M468.76,409.74c2.23,1.75,5.25,3.34,8.59,3.34,5.25,0,7.64-2.86,7.64-6.05s-1.75-5.09-8.27-7.32c-6.05-2.07-9.07-4.77-9.07-9.39s3.5-8.59,10.82-8.59,7.16.95,9.23,1.91l-.95,3.18c-2.07-1.75-5.41-3.02-8.59-3.02s-7,2.55-7,5.41,2.39,5.09,8.11,7.16c6.68,2.23,9.39,4.93,9.39,9.55s-4.14,9.23-11.61,9.23-7-.8-9.39-2.07l.95-3.18h0l.16-.16Z"/>
  </g>
  <path class="cls-4" d="M474.49,129.09c-.8,1.75-1.59,1.43-2.39.95-.8-.32-1.43-3.34-4.93-5.73s-6.68-2.55-6.68-2.55c0,0,1.27,1.43,2.39,3.02.95,1.59,2.07,3.82,2.7,5.57.64,1.75,1.11,3.34.95,6.2,0,2.86-2.07,5.89-2.55,6.05-.48.16-1.91-.48-2.7-2.55-.64-2.07-.64-4.93-.95-6.68-.32-1.75-2.55-6.05-3.5-7.16-1.11-1.11-2.07,0-2.07,0-1.75.8-5.89,8.59-7.32,11.45s-2.23,6.2-1.43,7.8c.8,1.43,3.02,1.43,6.84,2.23,3.5.64,8.43,3.34,9.07,3.66h0c2.55,1.27,3.5,2.86,3.5,2.86.32.8-1.43,2.23-1.43,2.23h-94.03c-.8,0-1.43-2.23-.64-3.34.8-1.27,9.23-5.89,14.16-7.64,4.77-1.75,9.23-1.43,11.77-1.43s3.5,0,6.52-.16c1.11-.16,1.91-.48,2.39-.8,2.07-1.11,4.3-6.84,4.3-6.84,0,0,5.57-13.05,6.68-15.27,1.11-2.23,7.48-13.21,7.48-13.21,0,0,1.59-2.86-1.59-2.55s-6.68,3.5-10.5,5.89-9.55,12.89-9.55,12.89c-1.59-3.02-.8-6.05,1.91-11.61,2.55-5.25,6.84-7.16,7.32-7.32-.16,0-1.43.48-3.66,1.27-2.55.95-8.11,6.05-8.11,6.05,0,0,0-1.59,1.27-3.5,1.11-1.91,3.5-4.93,7.95-7.32s10.98-2.7,10.98-2.7c0,0-1.11-1.59-3.02-2.23-1.91-.64-5.25-.48-5.25-.48,1.59-2.23,6.2-3.98,8.91-4.3s5.73,1.59,7.48,2.7,3.82,5.73,4.45,6.05,4.77.95,6.36,1.43c1.59.32,7.32,2.55,9.39,4.14,2.23,1.59,1.59,5.09,1.59,5.09-1.75.48-6.2-1.75-9.07-2.7-2.86-.95-7.64-2.86-7.8-3.02,1.43,1.59,2.55,4.77,3.02,7.64.48,3.02.64,8.75-.32,12.89-1.11,4.14-4.14,5.41-4.45,5.09-.32-.32-.8-5.73-.64-8.27.16-2.39.64-8.11.64-9.23s-.32-3.5-1.59-3.5-3.66,3.18-5.09,5.41c-1.43,2.23-6.52,13.21-7.95,17.18s-2.39,7.64-2.39,9.23.64,1.11,1.27,1.27h1.27c5.41,0,18.93,1.11,20.84,1.11.95,0,1.59-.16,2.07-.32h0c3.18-1.27,3.82-5.25,5.25-7.48,1.43-2.55,5.41-7.64,5.41-7.64,0,0,4.45-5.57,3.34-5.89-1.11-.32-3.34.95-6.05,1.91-2.7.95-7,4.77-7,4.77,0,0,0-2.23.16-3.66.32-1.27,2.07-4.14,3.5-5.41s4.61-2.39,6.05-2.55c1.43-.32,1.91-.48,1.91-.64s0-.32-3.34-.32-5.41,1.43-5.41,1.43c0,0-1.27.48-1.27.32s2.39-3.18,5.41-4.3c2.86-1.27,5.73-.64,7.48,0,1.59.64,3.02,2.23,3.66,2.55.64.32,2.23,0,4.93,0s9.07,1.91,11.46,5.09c2.55,3.18,1.91,5.25,1.27,7l-.64-.16Z"/>
</svg>